<?xml version="1.0" encoding="UTF-8"?> <svg xmlns="http://www.w3.org/2000/svg" width="512" height="512" viewBox="0 0 512 512" fill="none"> <path d="M330 150H320C303.43 150 290 136.57 290 120C290 103.43 276.57 90 260 90H220C203.43 90 190 76.5703 190 60V12.1289C127.031 21.1289 73.0703 58.0781 41.0781 110L21.9492 290C48.8711 366.16 118.469 422.148 202 429.238L290 302V260C290 243.43 303.43 230 320 230H330C352.09 230 370 212.09 370 190C370 167.91 352.09 150 330 150Z" fill="#D4AC54"></path> <circle cx="220" cy="220" r="210" stroke="#303866" stroke-width="20"></circle> <path d="M202 402H502V502H202V402Z" fill="#D4AC54"></path> <path d="M202 342H502V402H202V342Z" fill="white"></path> <path d="M502 302V342H202V302H502Z" fill="#D4AC54"></path> <path d="M430 220C430 249.09 424.078 276.809 413.391 302H290V260C290 243.43 303.43 230 320 230H330C352.09 230 370 212.09 370 190C370 167.91 352.09 150 330 150H320C303.43 150 290 136.57 290 120C290 103.43 276.57 90 260 90H220C203.43 90 190 76.5703 190 60V12.1289C199.801 10.7305 209.809 10 220 10C335.98 10 430 104.02 430 220Z" fill="white"></path> <path d="M201.636 170C217.303 170 230 183.43 230 200C230 216.57 217.303 230 201.636 230H126C110.334 230 97.6364 243.43 97.6364 260C97.6364 276.57 84.9392 290 69.2727 290H33.2974C20.5001 263 20.5 243.551 20.5 219C20.5 178.672 32.7509 141.988 51.383 110H88.1818C103.848 110 116.545 123.43 116.545 140C116.545 156.57 129.243 170 144.909 170H201.636Z" fill="white"></path> <path d="M192 438.227V502C192 507.523 196.477 512 202 512H502C507.523 512 512 507.523 512 502V302C512 296.477 507.523 292 502 292H427.938C435.938 268.918 440 244.77 440 220C440 98.4141 341.605 0 220 0C128.789 0 49.4883 55.4531 16.2383 136.902C14.1484 142.016 16.6016 147.855 21.7148 149.941C26.8281 152.027 32.6641 149.574 34.7539 144.461C38.1797 136.074 42.2148 127.871 46.7656 120H80C91.0273 120 100 128.973 100 140C100 162.055 117.945 180 140 180H200C211.027 180 220 188.973 220 200C220 211.027 211.027 220 200 220H120C97.9453 220 80 237.941 80 260C80 271.027 71.0273 280 60 280H29.1641C23.0859 260.664 20 240.516 20 220L20.0039 218.852C20.0312 213.328 15.5742 208.828 10.0508 208.801C10.0352 208.801 10.0195 208.801 10.0039 208.801C4.50391 208.801 0.03125 213.246 0.00390625 218.754L0 220C0 331.941 83.5898 424.41 192 438.227ZM492 392H212V352H492V392ZM212 492V412H492V492H212ZM492 332H212V312H492V332ZM420 220C420 244.879 415.5 269.062 406.641 292H300V260C300 248.973 308.973 240 320 240H330C357.57 240 380 217.57 380 190C380 162.43 357.57 140 330 140H320C308.973 140 300 131.027 300 120C300 97.9453 282.055 80 260 80H220C208.973 80 200 71.0273 200 60V21C206.645 20.3398 213.34 20 220 20C330.281 20 420 109.719 420 220ZM100 260C100 248.973 108.973 240 120 240H200C222.055 240 240 222.055 240 200C240 177.945 222.055 160 200 160H140C128.973 160 120 151.027 120 140C120 117.945 102.055 100 80 100H59.9883C89.4102 60.7344 131.945 33.7305 180 24.0039V60C180 82.0547 197.945 100 220 100H260C271.027 100 280 108.973 280 120C280 142.055 297.945 160 320 160H330C346.543 160 360 173.457 360 190C360 206.543 346.543 220 330 220H320C297.945 220 280 237.945 280 260V292H202C196.477 292 192 296.477 192 302V418.055C123.344 408.41 64.3516 363.484 36.6406 300H60C82.0547 300 100 282.055 100 260Z" fill="#303866"></path> <path d="M4 179C4 184.52 8.48047 189 14 189C19.5195 189 24 184.52 24 179C24 173.48 19.5195 169 14 169C8.48047 169 4 173.48 4 179Z" fill="#303866"></path> </svg> 