<?xml version="1.0" encoding="UTF-8"?> <svg xmlns="http://www.w3.org/2000/svg" width="394" height="45" viewBox="0 0 394 45" fill="none"> <path d="M0.34375 6.59375C0.34375 5.71875 0.510417 4.89583 0.84375 4.125C1.17708 3.33333 1.63542 2.65625 2.21875 2.09375C2.80208 1.51042 3.47917 1.05208 4.25 0.71875C5.04167 0.364583 5.875 0.1875 6.75 0.1875H31.0625C31.9375 0.1875 32.7604 0.364583 33.5312 0.71875C34.3229 1.05208 35.0104 1.51042 35.5938 2.09375C36.1771 2.65625 36.6354 3.33333 36.9688 4.125C37.3021 4.89583 37.4688 5.71875 37.4688 6.59375V12.375H31.0625V6.59375H6.75V38.5938H31.0625V27.7188H18.9062V21.3125H37.4688V38.5938C37.4688 39.4688 37.3021 40.3021 36.9688 41.0938C36.6354 41.8646 36.1771 42.5417 35.5938 43.125C35.0104 43.7083 34.3229 44.1667 33.5312 44.5C32.7604 44.8333 31.9375 45 31.0625 45H6.75C5.875 45 5.04167 44.8333 4.25 44.5C3.47917 44.1667 2.80208 43.7083 2.21875 43.125C1.63542 42.5417 1.17708 41.8646 0.84375 41.0938C0.510417 40.3021 0.34375 39.4688 0.34375 38.5938V6.59375ZM53.9688 0.1875H86.625V6.59375H60.375V19.4062H82.7812V25.8125H60.375V38.5938H86.625V45H53.9688V0.1875ZM97.375 0.1875H133.219V6.59375H118.5V45H112.094V6.59375H97.375V0.1875ZM145.906 6.59375C145.906 5.71875 146.073 4.89583 146.406 4.125C146.74 3.33333 147.198 2.65625 147.781 2.09375C148.365 1.51042 149.042 1.05208 149.812 0.71875C150.604 0.364583 151.438 0.1875 152.312 0.1875H176.625C177.5 0.1875 178.323 0.364583 179.094 0.71875C179.885 1.05208 180.573 1.51042 181.156 2.09375C181.74 2.65625 182.198 3.33333 182.531 4.125C182.865 4.89583 183.031 5.71875 183.031 6.59375V12.375H176.625V6.59375H152.312V38.5938H176.625V27.7188H164.469V21.3125H183.031V38.5938C183.031 39.4688 182.865 40.3021 182.531 41.0938C182.198 41.8646 181.74 42.5417 181.156 43.125C180.573 43.7083 179.885 44.1667 179.094 44.5C178.323 44.8333 177.5 45 176.625 45H152.312C151.438 45 150.604 44.8333 149.812 44.5C149.042 44.1667 148.365 43.7083 147.781 43.125C147.198 42.5417 146.74 41.8646 146.406 41.0938C146.073 40.3021 145.906 39.4688 145.906 38.5938V6.59375ZM199.531 0.1875H205.938V38.5938H231.531V0.1875H237.938V38.5938C237.938 39.4688 237.771 40.3021 237.438 41.0938C237.104 41.8646 236.646 42.5417 236.062 43.125C235.479 43.7083 234.792 44.1667 234 44.5C233.229 44.8333 232.406 45 231.531 45H205.938C205.062 45 204.229 44.8333 203.438 44.5C202.667 44.1667 201.99 43.7083 201.406 43.125C200.823 42.5417 200.365 41.8646 200.031 41.0938C199.698 40.3021 199.531 39.4688 199.531 38.5938V0.1875ZM274.312 0.1875L291.594 45H285.188L281.219 34.6875H261L257.031 45H250.625L267.906 0.1875H274.312ZM263.438 28.2812H278.75L271.125 8.53125L263.438 28.2812ZM339.688 16.1875C339.688 22.4375 337.021 26 331.688 26.875L340.125 45H333.031L324.719 27.0938H310.688V45H304.281V0.1875H328.812C336.062 0.1875 339.688 3.82292 339.688 11.0938V16.1875ZM310.688 20.6875H328.469C330.177 20.6875 331.406 20.3125 332.156 19.5625C332.906 18.8125 333.281 17.5833 333.281 15.875V11.4062C333.281 9.69792 332.906 8.46875 332.156 7.71875C331.406 6.96875 330.177 6.59375 328.469 6.59375H310.688V20.6875ZM378.188 38.5938C381.167 38.5938 383.458 37.7917 385.062 36.1875C386.667 34.5833 387.469 32.2917 387.469 29.3125V15.875C387.469 14.4167 387.26 13.1146 386.844 11.9688C386.427 10.8229 385.812 9.85417 385 9.0625C384.208 8.25 383.24 7.63542 382.094 7.21875C380.948 6.80208 379.646 6.59375 378.188 6.59375H361.812V38.5938H378.188ZM355.406 45V0.1875H378.188C380.583 0.1875 382.74 0.5625 384.656 1.3125C386.594 2.04167 388.24 3.09375 389.594 4.46875C390.969 5.82292 392.021 7.46875 392.75 9.40625C393.5 11.3438 393.875 13.5 393.875 15.875V29.3125C393.875 31.6875 393.5 33.8438 392.75 35.7812C392.021 37.7188 390.969 39.375 389.594 40.75C388.24 42.1042 386.594 43.1562 384.656 43.9062C382.74 44.6354 380.583 45 378.188 45H355.406Z" fill="#303866"></path> </svg> 