<?xml version="1.0" encoding="UTF-8"?> <svg xmlns="http://www.w3.org/2000/svg" width="511" height="511" viewBox="0 0 511 511" fill="none"> <g clip-path="url(#clip0)"> <path d="M95.8123 164.678V122.471C152.888 111.271 206.939 89.3526 255.5 57.688C302.938 88.6041 357.355 111.189 415.188 122.471V164.678C415.188 313.878 345.426 412.74 255.5 456.595C165.333 412.623 95.8123 313.543 95.8123 164.678Z" fill="#D4AC54"></path> <path d="M256 156C300.11 156 336 191.89 336 236C336 280.11 300.11 316 256 316C211.89 316 176 280.11 176 236C176 191.89 211.89 156 256 156Z" fill="white"></path> <path d="M166 236C166 285.626 206.374 326 256 326C305.626 326 346 285.626 346 236C346 186.374 305.626 146 256 146C206.374 146 166 186.374 166 236ZM326 236C326 274.598 294.598 306 256 306C217.402 306 186 274.598 186 236C186 197.402 217.402 166 256 166C294.598 166 326 197.402 326 236Z" fill="#303866"></path> <path d="M233.071 238.929C229.165 235.025 222.835 235.025 218.928 238.929C215.023 242.834 215.023 249.166 218.928 253.072L238.928 273.072C240.882 275.023 243.44 276 246 276C248.56 276 251.118 275.023 253.071 273.071L303.071 223.071C306.976 219.166 306.976 212.834 303.071 208.928C299.165 205.024 292.835 205.024 288.928 208.928L246 251.857L233.071 238.929Z" fill="#303866"></path> <path d="M465.18 88.8253C465.18 83.9442 461.652 79.7805 456.841 78.9813L435.523 75.4257C372.689 64.954 312.541 39.2192 261.578 0.997071C258.031 -1.66569 253.15 -1.66569 249.602 0.997071C198.639 39.2192 138.491 64.954 75.6568 75.4257L54.3392 78.9813C49.5283 79.7805 46 83.9442 46 88.8253V164.677C46 268.041 75.6295 366.283 148.698 439.951C199.68 491.347 250.28 508.766 252.409 509.479C253.438 509.83 254.514 510.001 255.59 510.001C256.662 510.001 257.738 509.826 258.771 509.479C260.9 508.766 311.5 491.347 362.479 439.951C435.562 366.271 465.18 268.022 465.18 164.677V88.8253ZM445.219 164.677C445.219 272.758 412.849 360.407 349.009 425.187C308.358 466.438 267.153 484.75 255.59 489.354C244.011 484.742 202.814 466.427 162.171 425.187C98.3312 360.407 65.961 272.758 65.961 164.677V97.2775L78.9395 95.1177C142.468 84.529 203.384 59.0788 255.59 21.3713C307.797 59.0788 368.709 84.529 432.241 95.1177L445.219 97.2775V164.677Z" fill="#303866"></path> <path d="M93.9921 112.673C149.025 101.936 203.021 80.0339 250.14 49.3245C253.454 47.1646 257.73 47.1646 261.04 49.3245C308.654 80.3731 361.192 101.687 417.2 112.677C421.882 113.593 425.258 117.699 425.258 122.47C425.258 122.47 425.227 171.613 425.157 174.868C425.044 180.307 420.599 184.638 415.18 184.638C415.11 184.638 415.04 184.638 414.97 184.634C409.457 184.521 405.083 179.956 405.2 174.447C405.266 171.336 405.297 130.607 405.297 130.607C351.894 119.161 301.598 98.646 255.586 69.5427C209.972 98.3419 158.506 119.332 105.883 130.615V164.677C105.883 314.267 179.516 409.889 255.637 446.236C318.097 416.329 376.116 345.928 396.549 251.375C397.714 245.987 403.02 242.568 408.416 243.729C413.8 244.891 417.227 250.205 416.061 255.593C393.496 360.006 327.43 436.435 259.664 466.356C258.378 466.922 257.005 467.206 255.633 467.206C254.245 467.206 252.857 466.918 251.563 466.341C165.239 427.815 85.9219 322.723 85.9219 164.677V122.47C85.9219 117.691 89.3059 113.585 93.9921 112.673Z" fill="#303866"></path> <path d="M417.188 112.673C362.155 101.936 308.159 80.0339 261.04 49.3245C257.726 47.1646 253.45 47.1646 250.14 49.3245C202.526 80.3731 149.988 101.687 93.9804 112.677C89.2981 113.593 85.9219 117.699 85.9219 122.47C85.9219 122.47 85.9531 171.613 86.0233 174.868C86.1363 180.307 90.5808 184.638 95.9999 184.638C96.07 184.638 96.1402 184.638 96.2104 184.634C101.723 184.521 106.097 179.956 105.98 174.447C105.914 171.336 105.883 130.607 105.883 130.607C159.286 119.161 209.582 98.646 255.594 69.5427C301.208 98.3419 352.674 119.332 405.297 130.615V164.677C405.297 314.267 331.664 409.889 255.543 446.236C193.083 416.329 135.064 345.928 114.631 251.375C113.466 245.987 108.16 242.568 102.764 243.729C97.38 244.891 93.9531 250.205 95.1188 255.593C117.684 360.006 183.75 436.435 251.516 466.356C252.803 466.922 254.175 467.206 255.547 467.206C256.935 467.206 258.323 466.918 259.617 466.341C345.941 427.815 425.258 322.723 425.258 164.677L425.258 122.47C425.258 117.691 421.874 113.585 417.188 112.673Z" fill="#303866"></path> </g> <defs> <clipPath id="clip0"> <rect width="511" height="511" fill="white"></rect> </clipPath> </defs> </svg> 