<?xml version="1.0" encoding="UTF-8"?> <svg xmlns="http://www.w3.org/2000/svg" width="453" height="45" viewBox="0 0 453 45" fill="none"> <path d="M0.0837555 6.59375C0.0837555 5.71875 0.250422 4.89583 0.583755 4.125C0.917089 3.33333 1.37542 2.65625 1.95876 2.09375C2.54209 1.51042 3.21917 1.05208 3.99001 0.71875C4.78167 0.364583 5.61501 0.1875 6.49001 0.1875L30.8025 0.1875C31.6775 0.1875 32.5004 0.364583 33.2713 0.71875C34.0629 1.05208 34.7504 1.51042 35.3338 2.09375C35.9171 2.65625 36.3754 3.33333 36.7088 4.125C37.0421 4.89583 37.2088 5.71875 37.2088 6.59375V12.375H30.8025V6.59375L6.49001 6.59375V38.5938L30.8025 38.5937V27.7187H18.6463V21.3125H37.2088V38.5937C37.2088 39.4687 37.0421 40.3021 36.7088 41.0937C36.3754 41.8646 35.9171 42.5417 35.3338 43.125C34.7504 43.7083 34.0629 44.1667 33.2713 44.5C32.5004 44.8333 31.6775 45 30.8025 45L6.49001 45C5.61501 45 4.78167 44.8333 3.99001 44.5C3.21917 44.1667 2.54209 43.7083 1.95876 43.125C1.37542 42.5417 0.917089 41.8646 0.583755 41.0938C0.250422 40.3021 0.0837555 39.4688 0.0837555 38.5938V6.59375ZM62.1488 0.1875L94.805 0.1875V6.59375L68.555 6.59375V19.4062H90.9613V25.8125H68.555V38.5937H94.805V45H62.1488V0.1875ZM113.995 0.1875L149.839 0.1875V6.59375H135.12V45H128.714V6.59375L113.995 6.59375V0.1875ZM170.966 6.59375C170.966 5.71875 171.133 4.89583 171.466 4.125C171.8 3.33333 172.258 2.65625 172.841 2.09375C173.425 1.51042 174.102 1.05208 174.872 0.71875C175.664 0.364583 176.497 0.1875 177.372 0.1875L201.685 0.1875C202.56 0.1875 203.383 0.364583 204.154 0.71875C204.945 1.05208 205.633 1.51042 206.216 2.09375C206.8 2.65625 207.258 3.33333 207.591 4.125C207.925 4.89583 208.091 5.71875 208.091 6.59375V12.375L201.685 12.375V6.59375L177.372 6.59375V38.5937L201.685 38.5937V27.7187H189.529V21.3125H208.091V38.5937C208.091 39.4687 207.925 40.3021 207.591 41.0937C207.258 41.8646 206.8 42.5417 206.216 43.125C205.633 43.7083 204.945 44.1667 204.154 44.5C203.383 44.8333 202.56 45 201.685 45L177.372 45C176.497 45 175.664 44.8333 174.872 44.5C174.102 44.1667 173.425 43.7083 172.841 43.125C172.258 42.5417 171.8 41.8646 171.466 41.0937C171.133 40.3021 170.966 39.4687 170.966 38.5937V6.59375ZM233.031 0.1875L239.438 0.1875V38.5937H265.031V0.1875L271.438 0.1875V38.5937C271.438 39.4687 271.271 40.3021 270.938 41.0937C270.604 41.8646 270.146 42.5417 269.562 43.125C268.979 43.7083 268.292 44.1667 267.5 44.5C266.729 44.8333 265.906 45 265.031 45H239.438C238.562 45 237.729 44.8333 236.938 44.5C236.167 44.1667 235.49 43.7083 234.906 43.125C234.323 42.5417 233.865 41.8646 233.531 41.0937C233.198 40.3021 233.031 39.4687 233.031 38.5937V0.1875ZM316.253 0.1875L333.534 45H327.128L323.159 34.6875H302.94L298.971 45H292.565L309.846 0.1875L316.253 0.1875ZM305.378 28.2812H320.69L313.065 8.53125L305.378 28.2812ZM390.068 16.1875C390.068 22.4375 387.401 26 382.068 26.875L390.505 45H383.411L375.099 27.0937H361.068V45H354.661V0.1875L379.193 0.1875C386.443 0.1875 390.068 3.82292 390.068 11.0937V16.1875ZM361.068 20.6875L378.849 20.6875C380.557 20.6875 381.786 20.3125 382.536 19.5625C383.286 18.8125 383.661 17.5833 383.661 15.875V11.4062C383.661 9.69792 383.286 8.46875 382.536 7.71875C381.786 6.96875 380.557 6.59375 378.849 6.59375L361.068 6.59375V20.6875ZM437.008 38.5937C439.987 38.5937 442.278 37.7917 443.883 36.1875C445.487 34.5833 446.289 32.2917 446.289 29.3125V15.875C446.289 14.4167 446.08 13.1146 445.664 11.9687C445.247 10.8229 444.633 9.85417 443.82 9.0625C443.028 8.25 442.06 7.63542 440.914 7.21875C439.768 6.80208 438.466 6.59375 437.008 6.59375L420.633 6.59375V38.5937H437.008ZM414.226 45V0.1875L437.008 0.1875C439.403 0.1875 441.56 0.5625 443.476 1.3125C445.414 2.04167 447.06 3.09375 448.414 4.46875C449.789 5.82292 450.841 7.46875 451.57 9.40625C452.32 11.3437 452.695 13.5 452.695 15.875V29.3125C452.695 31.6875 452.32 33.8437 451.57 35.7812C450.841 37.7187 449.789 39.375 448.414 40.75C447.06 42.1042 445.414 43.1562 443.476 43.9062C441.56 44.6354 439.403 45 437.008 45H414.226Z" fill="#E0E0E0"></path> </svg> 